#N canvas 227 23 1195 629 10;
#X obj 205 121 vsl 15 64 0 127 0 0 empty empty empty 0 -9 0 10 -262144
-1 -1 0 1;
#X obj 130 121 vsl 15 64 0 127 0 0 empty empty empty 0 -9 0 10 -262144
-1 -1 0 1;
#X obj 205 253 tgl 15 0 empty empty empty 17 7 0 10 -262144 -1 -1 0
1;
#X obj 130 253 tgl 15 0 empty empty empty 17 7 0 10 -262144 -1 -1 0
1;
#X obj 167 200 tgl 15 0 empty empty empty 17 7 0 10 -262144 -1 -1 0
1;
#X obj 899 130 loadbang;
#X obj 899 158 f \$1;
#X obj 1049 424 route 0;
#X obj 1049 362 ctlin;
#X obj 1168 425 route 0;
#X obj 1168 363 ctlin;
#X obj 1049 392 pack 0 0;
#X obj 1168 393 pack 0 0;
#X floatatom 1102 343 5 0 0 0 - - -, f 5;
#X obj 123 78 r \$0potA;
#X obj 188 78 r \$0potB;
#X obj 1168 455 s \$0potB;
#X obj 1049 454 s \$0potA;
#X floatatom 1223 341 5 0 0 0 - - -, f 5;
#X obj 955 213 + 1;
#X obj 929 213 * 2;
#X obj 899 185 - 1;
#X obj 1088 313 array get POTS 0 1;
#X obj 1206 313 array get POTS 0 1;
#X obj 1299 424 route 0;
#X obj 1438 425 route 0;
#X obj 1299 392 pack 0 0;
#X obj 1438 393 pack 0 0;
#X obj 1338 313 array get BUTTONS 0 1;
#X obj 1476 313 array get BUTTONS 0 1;
#X obj 1299 454 s \$0btnA;
#X obj 1438 454 s \$0btnB;
#X obj 39 243 r \$0btnA;
#X obj 258 242 r \$0btnB;
#X obj 1299 362 notein;
#X obj 1438 363 notein;
#X obj 691 373 noteout;
#X obj 180 234 hsl 63 15 0 127 0 0 empty empty empty -2 -8 0 10 -262144
-1 -1 0 1;
#X obj 732 312 array get LEDS 0 1;
#X obj 691 338 f;
#X obj 691 312 t b f;
#X obj 531 373 noteout;
#X obj 106 234 hsl 63 15 0 127 0 0 empty empty empty -2 -8 0 10 -262144
-1 -1 0 1;
#X obj 572 312 array get LEDS 0 1;
#X obj 531 338 f;
#X obj 531 312 t b f;
#X floatatom 732 334 5 0 0 0 - - -, f 5;
#X floatatom 572 334 5 0 0 0 - - -, f 5;
#X obj 861 373 noteout;
#X obj 902 312 array get LEDS 0 1;
#X obj 861 338 f;
#X obj 861 312 t b f;
#X floatatom 902 334 5 0 0 0 - - -, f 5;
#X text 1027 312 INPUTS:;
#X text 472 312 OUTPUTS:;
#X obj 861 287 * 127;
#X floatatom 922 289 5 0 0 0 - - -, f 5;
#X obj 902 267 + 12;
#X obj 159 305 outlet;
#X obj 208 305 outlet;
#X obj 278 306 outlet;
#X obj 326 306 outlet;
#X obj 49 305 outlet;
#X obj 98 305 outlet;
#X text 62 333 POT A \, B;
#X text 167 333 BUTTON A \, B;
#X text 9 31 BUTTON_LED A \, B;
#X obj 16 49 inlet;
#X text 280 333 BUTTON_LED A \, B;
#X obj 55 49 inlet, f 6;
#X obj 258 161 inlet;
#X text 259 143 STATUS LED;
#X text 117 187 Knob 1;
#X text 192 188 Knob 2;
#X text 129 271 S1;
#X text 205 272 S2;
#X text 160 216 LED1;
#X connect 4 0 55 0;
#X connect 5 0 6 0;
#X connect 6 0 21 0;
#X connect 7 0 17 0;
#X connect 8 0 11 1;
#X connect 8 1 11 0;
#X connect 9 0 16 0;
#X connect 10 0 12 1;
#X connect 10 1 12 0;
#X connect 11 0 7 0;
#X connect 12 0 9 0;
#X connect 14 0 1 0;
#X connect 14 0 62 0;
#X connect 15 0 0 0;
#X connect 15 0 63 0;
#X connect 19 0 23 0;
#X connect 19 0 29 0;
#X connect 19 0 38 0;
#X connect 20 0 19 0;
#X connect 20 0 22 0;
#X connect 20 0 28 0;
#X connect 20 0 43 0;
#X connect 21 0 20 0;
#X connect 21 0 57 0;
#X connect 22 0 7 1;
#X connect 22 0 13 0;
#X connect 23 0 9 1;
#X connect 23 0 18 0;
#X connect 24 0 30 0;
#X connect 25 0 31 0;
#X connect 26 0 24 0;
#X connect 27 0 25 0;
#X connect 28 0 24 1;
#X connect 29 0 25 1;
#X connect 32 0 3 0;
#X connect 32 0 58 0;
#X connect 33 0 2 0;
#X connect 33 0 59 0;
#X connect 34 0 26 0;
#X connect 34 1 26 1;
#X connect 35 0 27 0;
#X connect 35 1 27 1;
#X connect 37 0 40 0;
#X connect 37 0 61 0;
#X connect 38 0 39 1;
#X connect 38 0 46 0;
#X connect 39 0 36 0;
#X connect 40 0 39 0;
#X connect 40 1 36 1;
#X connect 42 0 45 0;
#X connect 42 0 60 0;
#X connect 43 0 44 1;
#X connect 43 0 47 0;
#X connect 44 0 41 0;
#X connect 45 0 44 0;
#X connect 45 1 41 1;
#X connect 49 0 50 1;
#X connect 49 0 52 0;
#X connect 50 0 48 0;
#X connect 51 0 50 0;
#X connect 51 1 48 1;
#X connect 55 0 51 0;
#X connect 57 0 49 0;
#X connect 57 0 56 0;
#X connect 67 0 42 0;
#X connect 69 0 37 0;
#X connect 70 0 4 0;
#X coords 0 -1 1 1 150 187 1 100 100;
