#N canvas 207 91 1117 532 10;
#X obj 241 110 vsl 15 64 0 127 0 0 empty empty empty 0 -9 0 10 -262144
-1 -1 0 1;
#X obj 166 110 vsl 15 64 0 127 0 0 empty empty empty 0 -9 0 10 -262144
-1 -1 0 1;
#X obj 1139 10 loadbang;
#X obj 1139 424 route 0;
#X obj 1139 362 ctlin;
#X obj 1258 425 route 0;
#X obj 1258 363 ctlin;
#X obj 1139 392 pack 0 0;
#X obj 1258 393 pack 0 0;
#X floatatom 1192 343 5 0 0 0 - - -, f 5;
#X obj 266 55 r \$0potA;
#X obj 321 55 r \$0potB;
#X obj 1258 455 s \$0potB;
#X obj 1139 454 s \$0potA;
#X floatatom 1313 341 5 0 0 0 - - -, f 5;
#X obj 1178 313 array get POTS 0 1;
#X obj 1296 313 array get POTS 0 1;
#X obj 1679 424 route 0;
#X obj 1838 425 route 0;
#X obj 1679 392 pack 0 0;
#X obj 1838 393 pack 0 0;
#X obj 1679 454 s \$0btnA;
#X obj 1838 454 s \$0btnB;
#X obj 1679 362 notein;
#X obj 1838 363 notein;
#X obj 711 503 noteout;
#X obj 711 468 f;
#X obj 711 442 t b f;
#X obj 711 373 noteout;
#X obj 711 338 f;
#X obj 711 312 t b f;
#X floatatom 752 464 5 0 0 0 - - -, f 5;
#X floatatom 752 334 5 0 0 0 - - -, f 5;
#X text 1117 312 INPUTS:;
#X text 652 312 OUTPUTS:;
#X obj 16 49 inlet;
#X obj 55 49 inlet, f 6;
#X obj 752 312 array get USERLEDS 0 1;
#X obj 752 442 array get USERLEDS 0 1;
#X obj 901 503 noteout;
#X obj 901 468 f;
#X obj 901 442 t b f;
#X obj 901 373 noteout;
#X obj 901 338 f;
#X obj 901 312 t b f;
#X floatatom 942 464 5 0 0 0 - - -, f 5;
#X floatatom 942 334 5 0 0 0 - - -, f 5;
#X obj 942 312 array get USERLEDS 0 1;
#X obj 942 442 array get USERLEDS 0 1;
#X msg 1139 52 0;
#X msg 1229 52 3;
#X msg 1169 52 1;
#X msg 1199 52 2;
#X obj 1376 424 route 0;
#X obj 1376 362 ctlin;
#X obj 1495 425 route 0;
#X obj 1495 363 ctlin;
#X obj 1376 392 pack 0 0;
#X obj 1495 393 pack 0 0;
#X floatatom 1429 343 5 0 0 0 - - -, f 5;
#X floatatom 1550 341 5 0 0 0 - - -, f 5;
#X obj 1415 313 array get POTS 0 1;
#X obj 1533 313 array get POTS 0 1;
#X obj 1376 454 s \$0potC;
#X obj 1495 455 s \$0potD;
#X obj 1995 424 route 0;
#X obj 2154 425 route 0;
#X obj 1995 392 pack 0 0;
#X obj 2154 393 pack 0 0;
#X obj 1995 362 notein;
#X obj 2154 363 notein;
#X obj 1995 454 s \$0btnC;
#X obj 2154 454 s \$0btnD;
#X obj 1718 313 array get USERBUTTONS 0 1;
#X obj 1876 313 array get USERBUTTONS 0 1;
#X obj 2034 313 array get USERBUTTONS 0 1;
#X obj 2192 313 array get USERBUTTONS 0 1;
#X obj 391 110 vsl 15 64 0 127 0 0 empty empty empty 0 -9 0 10 -262144
-1 -1 0 1;
#X obj 316 110 vsl 15 64 0 127 0 0 empty empty empty 0 -9 0 10 -262144
-1 -1 0 1;
#X obj 376 55 r \$0potC;
#X obj 431 55 r \$0potD;
#X obj 166 231 tgl 15 0 empty empty empty 17 7 0 10 -262144 -1 -1 1
1;
#X obj 140 212 hsl 64 15 0 127 0 0 empty empty empty -2 -8 0 10 -262144
-1 -1 6300 1;
#X msg 166 354 set \$1;
#X obj 166 330 * 127;
#X obj 711 287 r \$0uledA;
#X obj 901 287 r \$0uledB;
#X obj 711 417 r \$0uledC;
#X obj 901 417 r \$0uledD;
#X obj 165 379 s \$0uledA;
#X obj 241 231 tgl 15 0 empty empty empty 17 7 0 10 -262144 -1 -1 1
1;
#X obj 215 212 hsl 64 15 0 127 0 0 empty empty empty -2 -8 0 10 -262144
-1 -1 6300 1;
#X msg 241 354 set \$1;
#X obj 241 330 * 127;
#X obj 240 379 s \$0uledB;
#X obj 315 231 tgl 15 0 empty empty empty 17 7 0 10 -262144 -1 -1 1
1;
#X obj 289 212 hsl 64 15 0 127 0 0 empty empty empty -2 -8 0 10 -262144
-1 -1 6300 1;
#X msg 315 354 set \$1;
#X obj 315 330 * 127;
#X obj 390 231 tgl 15 0 empty empty empty 17 7 0 10 -262144 -1 -1 0
1;
#X obj 364 212 hsl 64 15 0 127 0 0 empty empty empty -2 -8 0 10 -262144
-1 -1 0 1;
#X msg 390 354 set \$1;
#X obj 390 330 * 127;
#X obj 314 379 s \$0uledC;
#X obj 389 379 s \$0uledD;
#X obj 476 155 r \$0btnA;
#X obj 532 155 r \$0btnB;
#X obj 587 155 r \$0btnC;
#X obj 643 155 r \$0btnD;
#X obj 166 188 tgl 15 0 empty empty empty 17 7 0 10 -262144 -1 -1 0
1;
#X obj 241 188 tgl 15 0 empty empty empty 17 7 0 10 -262144 -1 -1 0
1;
#X obj 315 188 tgl 15 0 empty empty empty 17 7 0 10 -262144 -1 -1 0
1;
#X obj 390 188 tgl 15 0 empty empty empty 17 7 0 10 -262144 -1 -1 0
1;
#X text 103 212 LEDS;
#X text 103 129 POTS;
#X text 103 188 BUTTONS;
#X obj 100 49 inlet;
#X obj 139 49 inlet, f 6;
#N canvas 557 102 157 160 setter 0;
#X obj 31 42 == 127;
#X obj 31 64 sel 1;
#X msg 31 86 set 1;
#X msg 73 86 set 0;
#X obj 31 117 outlet;
#X obj 31 14 inlet;
#X connect 0 0 1 0;
#X connect 1 0 2 0;
#X connect 1 1 3 0;
#X connect 2 0 4 0;
#X connect 3 0 4 0;
#X connect 5 0 0 0;
#X restore 109 289 pd setter;
#N canvas 557 102 157 160 setter 0;
#X obj 31 42 == 127;
#X obj 31 64 sel 1;
#X msg 31 86 set 1;
#X msg 73 86 set 0;
#X obj 31 117 outlet;
#X obj 31 14 inlet;
#X connect 0 0 1 0;
#X connect 1 0 2 0;
#X connect 1 1 3 0;
#X connect 2 0 4 0;
#X connect 3 0 4 0;
#X connect 5 0 0 0;
#X restore 179 289 pd setter;
#N canvas 557 102 157 160 setter 0;
#X obj 31 42 == 127;
#X obj 31 64 sel 1;
#X msg 31 86 set 1;
#X msg 73 86 set 0;
#X obj 31 117 outlet;
#X obj 31 14 inlet;
#X connect 0 0 1 0;
#X connect 1 0 2 0;
#X connect 1 1 3 0;
#X connect 2 0 4 0;
#X connect 3 0 4 0;
#X connect 5 0 0 0;
#X restore 256 289 pd setter;
#N canvas 557 102 157 160 setter 0;
#X obj 31 42 == 127;
#X obj 31 64 sel 1;
#X msg 31 86 set 1;
#X msg 73 86 set 0;
#X obj 31 117 outlet;
#X obj 31 14 inlet;
#X connect 0 0 1 0;
#X connect 1 0 2 0;
#X connect 1 1 3 0;
#X connect 2 0 4 0;
#X connect 3 0 4 0;
#X connect 5 0 0 0;
#X restore 332 289 pd setter;
#X text 15 28 LEDS A \, B \, C \, D;
#X obj 496 223 outlet;
#X obj 539 223 outlet;
#X obj 583 223 outlet;
#X obj 626 223 outlet;
#X obj 676 223 outlet;
#X obj 719 223 outlet;
#X obj 763 223 outlet;
#X obj 806 223 outlet;
#X text 497 246 POTS 1 \, 2 \, 3 \, 4;
#X text 675 246 BUTTONS 5 \, 6 \, 7 \, 8;
#X text 151 107 1;
#X text 226 107 2;
#X text 226 187 6;
#X text 151 187 5;
#X text 302 107 3;
#X text 377 107 4;
#X text 302 187 7;
#X text 377 187 8;
#X connect 0 0 124 0;
#X connect 1 0 123 0;
#X connect 2 0 49 0;
#X connect 2 0 50 0;
#X connect 2 0 51 0;
#X connect 2 0 52 0;
#X connect 3 0 13 0;
#X connect 4 0 7 1;
#X connect 4 1 7 0;
#X connect 5 0 12 0;
#X connect 6 0 8 1;
#X connect 6 1 8 0;
#X connect 7 0 3 0;
#X connect 8 0 5 0;
#X connect 10 0 1 0;
#X connect 11 0 0 0;
#X connect 15 0 3 1;
#X connect 15 0 9 0;
#X connect 16 0 5 1;
#X connect 16 0 14 0;
#X connect 17 0 21 0;
#X connect 18 0 22 0;
#X connect 19 0 17 0;
#X connect 20 0 18 0;
#X connect 23 0 19 0;
#X connect 23 1 19 1;
#X connect 24 0 20 0;
#X connect 24 1 20 1;
#X connect 26 0 25 0;
#X connect 27 0 26 0;
#X connect 27 1 25 1;
#X connect 29 0 28 0;
#X connect 30 0 29 0;
#X connect 30 1 28 1;
#X connect 35 0 82 0;
#X connect 36 0 91 0;
#X connect 37 0 29 1;
#X connect 37 0 32 0;
#X connect 38 0 26 1;
#X connect 38 0 31 0;
#X connect 40 0 39 0;
#X connect 41 0 40 0;
#X connect 41 1 39 1;
#X connect 43 0 42 0;
#X connect 44 0 43 0;
#X connect 44 1 42 1;
#X connect 47 0 43 1;
#X connect 47 0 46 0;
#X connect 48 0 40 1;
#X connect 48 0 45 0;
#X connect 49 0 37 0;
#X connect 49 0 15 0;
#X connect 49 0 73 0;
#X connect 50 0 48 0;
#X connect 50 0 62 0;
#X connect 50 0 76 0;
#X connect 51 0 47 0;
#X connect 51 0 16 0;
#X connect 51 0 74 0;
#X connect 52 0 38 0;
#X connect 52 0 61 0;
#X connect 52 0 75 0;
#X connect 53 0 63 0;
#X connect 54 0 57 1;
#X connect 54 1 57 0;
#X connect 55 0 64 0;
#X connect 56 0 58 1;
#X connect 56 1 58 0;
#X connect 57 0 53 0;
#X connect 58 0 55 0;
#X connect 61 0 53 1;
#X connect 61 0 59 0;
#X connect 62 0 55 1;
#X connect 62 0 60 0;
#X connect 65 0 71 0;
#X connect 66 0 72 0;
#X connect 67 0 65 0;
#X connect 68 0 66 0;
#X connect 69 0 67 0;
#X connect 69 1 67 1;
#X connect 70 0 68 0;
#X connect 70 1 68 1;
#X connect 73 0 17 1;
#X connect 74 0 18 1;
#X connect 75 0 65 1;
#X connect 76 0 66 1;
#X connect 77 0 126 0;
#X connect 78 0 125 0;
#X connect 79 0 78 0;
#X connect 80 0 77 0;
#X connect 81 0 84 0;
#X connect 82 0 89 0;
#X connect 82 0 118 0;
#X connect 83 0 82 0;
#X connect 84 0 83 0;
#X connect 84 0 89 0;
#X connect 85 0 30 0;
#X connect 86 0 44 0;
#X connect 87 0 27 0;
#X connect 88 0 41 0;
#X connect 90 0 93 0;
#X connect 91 0 94 0;
#X connect 91 0 119 0;
#X connect 92 0 91 0;
#X connect 93 0 92 0;
#X connect 93 0 94 0;
#X connect 95 0 98 0;
#X connect 96 0 103 0;
#X connect 96 0 120 0;
#X connect 97 0 96 0;
#X connect 98 0 97 0;
#X connect 98 0 103 0;
#X connect 99 0 102 0;
#X connect 100 0 104 0;
#X connect 100 0 121 0;
#X connect 101 0 100 0;
#X connect 102 0 101 0;
#X connect 102 0 104 0;
#X connect 105 0 109 0;
#X connect 106 0 110 0;
#X connect 107 0 111 0;
#X connect 108 0 112 0;
#X connect 109 0 127 0;
#X connect 110 0 128 0;
#X connect 111 0 129 0;
#X connect 112 0 130 0;
#X connect 116 0 96 0;
#X connect 117 0 100 0;
#X connect 118 0 81 0;
#X connect 119 0 90 0;
#X connect 120 0 95 0;
#X connect 121 0 99 0;
#X coords 0 -1 1 1 350 150 1 100 100;
