#N canvas 682 184 890 478 10;
#X obj 123 120 vsl 15 64 0 127 0 0 empty empty empty 0 -9 0 10 -262144
-1 -1 0 1;
#X obj 229 194 tgl 15 0 empty empty empty 17 7 0 10 -262144 -1 -1 0
1;
#X obj 91 66 inlet;
#X obj 141 66 inlet;
#X obj 191 66 inlet;
#X obj 157 120 vsl 15 64 0 127 0 0 empty empty empty 0 -9 0 10 -262144
-1 -1 0 1;
#X obj 194 120 vsl 15 64 0 127 0 0 empty empty empty 0 -9 0 10 -262144
-1 -1 0 1;
#X obj 229 120 vsl 15 64 0 127 0 0 empty empty empty 0 -9 0 10 -262144
-1 -1 0 1;
#X obj 194 194 tgl 15 0 empty empty empty 17 7 0 10 -262144 -1 -1 0
1;
#X obj 631 159 noteout;
#X obj 631 124 f;
#X obj 631 98 t b f;
#X obj 441 159 noteout;
#X obj 441 124 f;
#X obj 441 98 t b f;
#X floatatom 672 120 5 0 0 0 - - -, f 5;
#X floatatom 482 120 5 0 0 0 - - -, f 5;
#X text 382 108 OUTPUTS:;
#X text 103 117 S1;
#X text 138 117 S2;
#X text 175 117 M1;
#X text 210 117 M2;
#X text 190 212 Direction;
#X text 88 49 S1;
#X text 138 49 S2;
#X text 188 49 M1;
#X obj 241 66 inlet;
#X obj 270 165 inlet;
#X obj 320 165 inlet;
#X text 238 49 M2;
#X text 267 148 I1;
#X text 317 148 I2;
#X obj 85 241 s \$0s1;
#X obj 130 241 s \$0s2;
#X obj 185 241 s \$0m1;
#X obj 230 241 s \$0m2;
#X obj 185 271 s \$0i1;
#X obj 230 271 s \$0i2;
#X obj 482 98 array get MOTORINS 0 1;
#X obj 672 98 array get MOTORINS 0 1;
#X obj 482 23 loadbang;
#X msg 482 48 0;
#X msg 513 47 1;
#X obj 631 68 r \$0i2;
#X obj 441 68 r \$0i1;
#X floatatom 484 230 5 0 0 0 - - -, f 5;
#X obj 441 269 ctlout;
#X obj 484 208 array get MOTORPWMS 0 1;
#X obj 441 208 r \$0m1;
#X floatatom 674 230 5 0 0 0 - - -, f 5;
#X obj 631 269 ctlout;
#X obj 674 208 array get MOTORPWMS 0 1;
#X obj 631 208 r \$0m2;
#X floatatom 484 350 5 0 0 0 - - -, f 5;
#X obj 441 389 ctlout;
#X floatatom 674 350 5 0 0 0 - - -, f 5;
#X obj 631 389 ctlout;
#X obj 441 328 r \$0s1;
#X obj 631 328 r \$0s2;
#X obj 484 328 array get SERVOS 0 1;
#X obj 674 328 array get SERVOS 0 1;
#X connect 0 0 32 0;
#X connect 1 0 37 0;
#X connect 2 0 0 0;
#X connect 3 0 5 0;
#X connect 4 0 6 0;
#X connect 5 0 33 0;
#X connect 6 0 34 0;
#X connect 7 0 35 0;
#X connect 8 0 36 0;
#X connect 10 0 9 0;
#X connect 11 0 10 0;
#X connect 11 1 9 1;
#X connect 13 0 12 0;
#X connect 14 0 13 0;
#X connect 14 1 12 1;
#X connect 26 0 7 0;
#X connect 27 0 8 0;
#X connect 28 0 1 0;
#X connect 38 0 13 1;
#X connect 38 0 16 0;
#X connect 39 0 10 1;
#X connect 39 0 15 0;
#X connect 40 0 41 0;
#X connect 40 0 42 0;
#X connect 41 0 38 0;
#X connect 41 0 47 0;
#X connect 41 0 59 0;
#X connect 42 0 39 0;
#X connect 42 0 51 0;
#X connect 42 0 60 0;
#X connect 43 0 11 0;
#X connect 44 0 14 0;
#X connect 47 0 45 0;
#X connect 47 0 46 1;
#X connect 48 0 46 0;
#X connect 51 0 49 0;
#X connect 51 0 50 1;
#X connect 52 0 50 0;
#X connect 57 0 54 0;
#X connect 58 0 56 0;
#X connect 59 0 53 0;
#X connect 59 0 54 1;
#X connect 60 0 55 0;
#X connect 60 0 56 1;
#X coords 0 -1 1 1 160 130 1 100 100;
